<?xml version="1.0" standalone="no"?><!DOCTYPE svg PUBLIC "-//W3C//DTD SVG 1.1//EN" "http://www.w3.org/Graphics/SVG/1.1/DTD/svg11.dtd"><svg width="100%" height="100%" viewBox="0 0 32 32" version="1.1" xmlns="http://www.w3.org/2000/svg" xmlns:xlink="http://www.w3.org/1999/xlink" xml:space="preserve" style="fill-rule:evenodd;clip-rule:evenodd;stroke-linejoin:round;stroke-miterlimit:1.41421;"><path d="M16.209,24.317c0,-0.237 0,-0.394 -0.064,-0.63c-0.063,-0.157 -0.063,-0.393 -0.126,-0.551c-0.063,-0.157 -0.126,-0.315 -0.189,-0.551c-0.127,-0.157 -0.19,-0.314 -0.253,-0.472c-0.063,-0.157 -0.189,-0.236 -0.315,-0.472c-0.127,-0.157 -0.253,-0.315 -0.316,-0.393c-0.063,-0.079 -0.189,-0.236 -0.379,-0.394c-0.189,-0.157 -0.316,-0.315 -0.379,-0.315c-0.063,0 -0.189,-0.157 -0.378,-0.314c-0.19,-0.158 -0.316,-0.315 -0.379,-0.315c-0.126,0 -0.316,0 -0.632,0c-0.441,0 -0.883,0 -1.262,0.079c-0.442,0.078 -0.884,0.157 -1.326,0.393c-0.442,0.157 -0.821,0.393 -1.199,0.708c-0.379,0.315 -0.632,0.63 -0.821,1.102c-0.189,0.472 -0.316,1.023 -0.316,1.652c0,0.709 0.127,1.338 0.442,1.81c0.316,0.551 0.695,0.945 1.137,1.259c0.441,0.315 0.947,0.551 1.452,0.709c0.505,0.157 1.01,0.236 1.515,0.236c0.505,0 0.947,-0.079 1.389,-0.158c0.441,-0.157 0.82,-0.315 1.199,-0.629c0.379,-0.236 0.694,-0.63 0.884,-1.102c0.189,-0.472 0.316,-1.023 0.316,-1.652ZM14.757,11.254c0,-0.63 -0.064,-1.259 -0.19,-1.967c-0.126,-0.709 -0.316,-1.338 -0.568,-1.968c-0.253,-0.629 -0.568,-1.18 -1.01,-1.573c-0.442,-0.394 -0.947,-0.63 -1.452,-0.63c-0.758,0 -1.326,0.315 -1.768,1.023c-0.442,0.708 -0.631,1.495 -0.631,2.518c0,0.472 0.063,0.944 0.126,1.495c0.063,0.551 0.253,1.023 0.442,1.574c0.189,0.551 0.442,1.023 0.695,1.416c0.252,0.394 0.568,0.787 0.946,1.023c0.379,0.236 0.758,0.394 1.2,0.394c0.758,0 1.326,-0.315 1.704,-0.944c0.316,-0.551 0.506,-1.338 0.506,-2.361ZM13.178,4.093l5.303,0l-1.641,1.18l-1.642,0c0.569,0.473 1.011,1.102 1.326,1.889c0.316,0.787 0.505,1.652 0.505,2.518c0,0.708 -0.063,1.416 -0.252,1.967c-0.19,0.551 -0.442,1.023 -0.695,1.417c-0.252,0.315 -0.505,0.708 -0.82,0.944c-0.253,0.315 -0.505,0.63 -0.695,0.944c-0.189,0.315 -0.252,0.63 -0.252,1.023c0,0.236 0.063,0.551 0.189,0.787c0.126,0.236 0.316,0.472 0.505,0.708c0.189,0.237 0.442,0.473 0.694,0.709c0.253,0.236 0.506,0.55 0.758,0.865c0.253,0.315 0.505,0.63 0.694,1.023c0.19,0.394 0.379,0.787 0.505,1.259c0.127,0.472 0.19,1.023 0.19,1.574c0,1.653 -0.568,3.069 -1.705,4.249c-1.199,1.338 -2.904,1.968 -5.113,1.968c-0.505,0 -0.947,-0.079 -1.452,-0.158c-0.505,-0.078 -1.01,-0.236 -1.452,-0.472c-0.505,-0.236 -0.947,-0.551 -1.326,-0.865c-0.379,-0.315 -0.694,-0.787 -0.947,-1.338c-0.189,-0.472 -0.316,-1.023 -0.316,-1.731c0,-0.63 0.127,-1.259 0.442,-2.046c0.253,-0.63 0.632,-1.181 1.137,-1.653c0.505,-0.472 1.136,-0.865 1.767,-1.102c0.632,-0.236 1.263,-0.393 1.894,-0.55c0.568,-0.079 1.2,-0.158 1.831,-0.236c-0.505,-0.866 -0.757,-1.574 -0.757,-2.282c0,-0.158 0,-0.237 0,-0.394c0,-0.079 0.063,-0.236 0.063,-0.315c0,-0.078 0.063,-0.157 0.126,-0.314c0.063,-0.158 0.063,-0.237 0.063,-0.315c-0.316,0.078 -0.631,0.078 -0.821,0.078c-1.199,0 -2.209,-0.472 -3.093,-1.495c-0.884,-1.023 -1.263,-2.203 -1.263,-3.698c0,-1.417 0.379,-2.676 1.137,-3.777c0.757,-1.023 1.704,-1.731 2.841,-2.046c0.757,-0.236 1.515,-0.315 2.272,-0.315ZM25.741,7.949l0,1.967l-3.093,0l0,3.856l-1.578,0l0,-3.856l-3.094,0l0,-1.967l3.094,0l0,-3.856l1.578,0l0,3.856l3.093,0Z" style="fill:#000;fill-rule:nonzero;"/></svg>