<?xml version="1.0" standalone="no"?><!DOCTYPE svg PUBLIC "-//W3C//DTD SVG 1.1//EN" "http://www.w3.org/Graphics/SVG/1.1/DTD/svg11.dtd"><svg width="100%" height="100%" viewBox="0 0 200 200" version="1.1" xmlns="http://www.w3.org/2000/svg" xmlns:xlink="http://www.w3.org/1999/xlink" xml:space="preserve" style="fill-rule:evenodd;clip-rule:evenodd;stroke-linejoin:round;stroke-miterlimit:1.41421;"><path d="M0,30.212c0,-16.668 13.533,-30.201 30.201,-30.201l139.598,0c16.668,0 30.201,13.533 30.201,30.201l0,139.578c0,16.669 -13.533,30.201 -30.201,30.201l-139.598,0c-16.668,0 -30.201,-13.532 -30.201,-30.201l0,-139.578Z" style="fill:#000;"/><path d="M147.16,8.561l-94.32,0c-24.967,0 -45.066,20.263 -45.066,45.433l0,92.02c0.808,19.647 3.917,7.227 9.834,-14.531c6.877,-25.287 29.273,-47.388 56.547,-63.952c20.817,-12.642 44.119,-20.715 86.533,-21.483c24.054,-0.435 21.931,-31.218 -13.527,-37.487l-0.001,0Z" style="fill:url(#_Linear1);fill-rule:nonzero;"/><path d="M63.992,167.85l0,-90.884l-30.208,0l0,90.884l30.208,0ZM48.892,64.55c10.534,0 17.091,-6.979 17.091,-15.7c-0.196,-8.918 -6.557,-15.703 -16.891,-15.703c-10.333,0 -17.09,6.785 -17.09,15.703c0,8.722 6.555,15.7 16.693,15.7l0.197,0Z" style="fill:#fff;fill-rule:nonzero;"/><path d="M80.712,167.85l30.208,0l0,-50.754c0,-2.716 0.196,-5.43 0.994,-7.371c2.184,-5.428 7.154,-11.049 15.499,-11.049c10.931,0 15.304,8.335 15.304,20.552l0,48.622l30.206,-0.001l0,-52.112c0,-27.916 -14.903,-40.905 -34.778,-40.905c-16.296,0 -23.451,9.109 -27.426,15.313l0.202,0l0,-13.181l-30.208,0c0.396,8.528 0,90.884 0,90.884l-0.001,0.002Z" style="fill:#fff;fill-rule:nonzero;"/><defs><linearGradient id="_Linear1" x1="0" y1="0" x2="1" y2="0" gradientUnits="userSpaceOnUse" gradientTransform="matrix(26.0233,75.8501,-75.8501,26.0233,25.0493,-20.5261)"><stop offset="0%" style="stop-color:#fff;stop-opacity:0.781116"/><stop offset="100%" style="stop-color:#fff;stop-opacity:0"/></linearGradient></defs></svg>